<svg width="34" height="34" viewBox="0 0 34 34" fill="none" xmlns="http://www.w3.org/2000/svg">
<path fill-rule="evenodd" clip-rule="evenodd" d="M16.9174 0C13.8431 0.0105678 10.8198 0.861555 8.13099 2.50958C4.2574 4.88289 1.54022 8.62389 0.477673 13.0446C0.163297 14.3544 0.0049989 15.6776 0 16.9919V17.1215C0.0116641 20.1979 0.861477 23.2219 2.50556 25.9123C3.18319 27.0319 3.18319 28.423 2.50334 29.5471L0.961455 32.1612C0.851479 32.3514 0.792603 32.5656 0.792603 32.7791C0.792603 33.4521 1.34026 34 2.01178 34H16.5741C26.0426 34 33.8598 26.4779 33.9986 17.2305C34.0392 14.0174 33.1755 10.8737 31.5025 8.14111C29.1325 4.26328 25.3961 1.54179 20.9815 0.478333C19.6723 0.163523 18.351 0.00500581 17.0374 0H16.9174ZM4.6001 30.8107C5.7404 28.913 5.7404 26.5547 4.59788 24.6536C3.38426 22.6824 2.6472 20.4293 2.46668 18.1377C2.15897 14.2543 3.37981 10.4849 5.90259 7.52206C8.42648 4.55862 11.9524 2.75709 15.8337 2.45006C19.9256 2.10355 23.9831 3.52353 26.9646 6.3457C29.9417 9.15173 31.6169 13.1074 31.5608 17.1994C31.4475 25.1208 24.7246 31.565 16.5741 31.565H4.14853L4.6001 30.8107ZM15.5925 14.358L11.3764 18.3472C10.8745 18.8244 10.8745 19.592 11.3764 20.0693C11.8784 20.5426 12.6895 20.5426 13.1914 20.0693L16.492 17L19.8086 20.0653C20.3105 20.5386 21.1216 20.5386 21.6236 20.0653C22.1255 19.592 22.1255 18.8205 21.6236 18.3472L17.3914 14.358C17.1545 14.1193 16.8413 14 16.492 14C16.1426 14 15.8254 14.1193 15.5925 14.358Z" fill="url(#paint0_linear)"/>
<defs>
<linearGradient id="paint0_linear" x1="16.1506" y1="53.2323" x2="49.9689" y2="18.1352" gradientUnits="userSpaceOnUse">
<stop stop-color="#1E15F9"/>
<stop offset="1" stop-color="#C318F9"/>
</linearGradient>
</defs>
</svg>
