<svg width="116" height="34" viewBox="0 0 116 34" fill="none" xmlns="http://www.w3.org/2000/svg">
<g id="votekit-logo">
<path id="votekit" fill-rule="evenodd" clip-rule="evenodd" d="M93.09 7.96002C93.09 7.84002 93.1283 7.73669 93.205 7.65002C93.2816 7.56335 93.39 7.52002 93.53 7.52002H94.57C94.69 7.52002 94.7966 7.56002 94.89 7.64002C94.9833 7.72002 95.03 7.82669 95.03 7.96002V17.06L100.23 11.55C100.31 11.4767 100.392 11.415 100.475 11.365C100.558 11.315 100.66 11.29 100.78 11.29H102.3C102.413 11.29 102.497 11.3134 102.55 11.36C102.603 11.4067 102.63 11.4634 102.63 11.53C102.63 11.6567 102.593 11.7667 102.52 11.86L97.65 16.91L103.15 23.43H103.13C103.197 23.4967 103.238 23.5684 103.255 23.645C103.272 23.7217 103.28 23.78 103.28 23.82C103.28 23.8934 103.258 23.9417 103.215 23.965C103.172 23.9884 103.093 24 102.98 24H101.26C101.167 24 101.08 23.9734 101 23.92C100.92 23.8667 100.853 23.7834 100.8 23.67L96.33 18.25L95.03 19.59V23.56C95.03 23.8534 94.8766 24 94.57 24H93.53C93.2366 24 93.09 23.8534 93.09 23.56V7.96002ZM73.755 23.76C74.2183 23.9134 74.7133 23.9934 75.24 24C75.4133 24 75.5483 23.9517 75.645 23.855C75.7416 23.7584 75.79 23.6234 75.79 23.45V22.06C75.79 21.92 75.75 21.8 75.67 21.7C75.59 21.6 75.48 21.55 75.34 21.55C74.9533 21.55 74.6733 21.4534 74.5 21.26C74.3266 21.0667 74.24 20.75 74.24 20.31V19C74.24 18.9867 74.2416 18.9734 74.245 18.96C74.2483 18.9467 74.25 18.9334 74.25 18.92V17.02C74.25 16.7867 74.2483 16.57 74.245 16.37C74.2416 16.17 74.24 15.955 74.24 15.725V13.83H75.68C75.8533 13.83 75.9866 13.7834 76.08 13.69C76.1733 13.5967 76.22 13.4434 76.22 13.23V11.86C76.22 11.6667 76.1733 11.525 76.08 11.435C75.9866 11.345 75.8533 11.3 75.68 11.3H74.24C74.24 10.88 74.2416 10.4617 74.245 10.045C74.2483 9.62835 74.25 9.21002 74.25 8.79002C74.25 8.60335 74.2183 8.45335 74.155 8.34002C74.0916 8.22669 73.9566 8.17002 73.75 8.17002C73.6433 8.17002 73.51 8.18835 73.35 8.22502C73.19 8.26169 73.025 8.30669 72.855 8.36002C72.685 8.41335 72.52 8.46835 72.36 8.52502L71.95 8.67002C71.7766 8.73002 71.6483 8.79835 71.565 8.87502C71.4816 8.95169 71.44 9.05669 71.44 9.19002C71.44 9.54335 71.4383 9.89502 71.435 10.245C71.4316 10.595 71.43 10.9467 71.43 11.3H70.28C70.0866 11.3 69.9416 11.34 69.845 11.42C69.7483 11.5 69.7 11.6367 69.7 11.83V13.27C69.7 13.47 69.7483 13.6134 69.845 13.7C69.9416 13.7867 70.0866 13.83 70.28 13.83H71.43V20.58C71.43 21.12 71.53 21.6017 71.73 22.025C71.93 22.4484 72.2016 22.805 72.545 23.095C72.8883 23.385 73.2916 23.6067 73.755 23.76ZM55.495 15.915C55.3383 16.4784 55.26 17.0633 55.26 17.67C55.26 18.2767 55.3383 18.86 55.495 19.42C55.6516 19.98 55.8733 20.5017 56.16 20.985C56.4466 21.4684 56.79 21.91 57.19 22.31C57.59 22.71 58.0333 23.0517 58.52 23.335C59.0066 23.6184 59.5283 23.8384 60.085 23.995C60.6416 24.1517 61.2233 24.23 61.83 24.23C62.43 24.23 63.01 24.1517 63.57 23.995C64.13 23.8384 64.6516 23.6184 65.135 23.335C65.6183 23.0517 66.06 22.71 66.46 22.31C66.86 21.91 67.2033 21.4684 67.49 20.985C67.7766 20.5017 67.9983 19.98 68.155 19.42C68.3116 18.86 68.39 18.2767 68.39 17.67C68.39 17.0633 68.3116 16.4784 68.155 15.915C67.9983 15.3517 67.7766 14.8267 67.49 14.34C67.2033 13.8534 66.86 13.4117 66.46 13.015C66.06 12.6184 65.6183 12.2784 65.135 11.995C64.6516 11.7117 64.13 11.4917 63.57 11.335C63.01 11.1784 62.43 11.1 61.83 11.1C61.2233 11.1 60.6416 11.1784 60.085 11.335C59.5283 11.4917 59.0066 11.7117 58.52 11.995C58.0333 12.2784 57.59 12.6184 57.19 13.015C56.79 13.4117 56.4466 13.8534 56.16 14.34C55.8733 14.8267 55.6516 15.3517 55.495 15.915ZM42.265 11.97L42.3 12.11L47.01 23.6C47.05 23.7 47.1116 23.7917 47.195 23.875C47.2783 23.9584 47.44 24 47.68 24H48.6C48.8066 24 48.9483 23.9567 49.025 23.87C49.1016 23.7834 49.1666 23.6934 49.22 23.6L53.98 12.04C53.9933 12 54.0083 11.94 54.025 11.86C54.0416 11.78 54.05 11.7134 54.05 11.66C54.05 11.5534 54.0116 11.4667 53.935 11.4C53.8583 11.3334 53.7166 11.3 53.51 11.3H51.64C51.4733 11.3 51.3416 11.335 51.245 11.405C51.1483 11.475 51.0666 11.59 51 11.75C50.8733 12.11 50.7316 12.5117 50.575 12.955C50.4183 13.3984 50.2533 13.8634 50.08 14.35C49.9066 14.8367 49.73 15.3334 49.55 15.84C49.37 16.3467 49.1933 16.8384 49.02 17.315C48.8466 17.7917 48.685 18.2417 48.535 18.665C48.385 19.0884 48.2533 19.4634 48.14 19.79C48.0666 19.61 47.9666 19.3517 47.84 19.015C47.7133 18.6784 47.57 18.2917 47.41 17.855C47.25 17.4184 47.08 16.9517 46.9 16.455C46.72 15.9584 46.54 15.4584 46.36 14.955C46.18 14.4517 46.005 13.9634 45.835 13.49C45.665 13.0167 45.5133 12.59 45.38 12.21L45.2 11.76C45.14 11.6134 45.06 11.5 44.96 11.42C44.86 11.34 44.73 11.3 44.57 11.3H42.77C42.59 11.3 42.455 11.3384 42.365 11.415C42.275 11.4917 42.23 11.5934 42.23 11.72C42.23 11.7534 42.2333 11.7934 42.24 11.84C42.2466 11.8867 42.255 11.93 42.265 11.97ZM58.08 17.67C58.08 18.2034 58.1733 18.7084 58.36 19.185C58.5466 19.6617 58.8066 20.0767 59.14 20.43C59.4733 20.7834 59.8683 21.0634 60.325 21.27C60.7817 21.4767 61.28 21.58 61.82 21.58C62.3467 21.58 62.835 21.4767 63.285 21.27C63.735 21.0634 64.1233 20.7834 64.45 20.43C64.7766 20.0767 65.0316 19.6617 65.215 19.185C65.3983 18.7084 65.49 18.2034 65.49 17.67C65.49 17.1433 65.3983 16.64 65.215 16.16C65.0316 15.68 64.7766 15.2584 64.45 14.895C64.1233 14.5317 63.735 14.2417 63.285 14.025C62.835 13.8084 62.3467 13.7 61.82 13.7C61.28 13.7 60.7817 13.8084 60.325 14.025C59.8683 14.2417 59.4733 14.5317 59.14 14.895C58.8066 15.2584 58.5466 15.68 58.36 16.16C58.1733 16.64 58.08 17.1433 58.08 17.67ZM88.6 22.6C88.0133 23.1 87.3717 23.4934 86.675 23.78C85.9783 24.0667 85.2133 24.21 84.38 24.21C83.48 24.21 82.6267 24.04 81.82 23.7C81.0133 23.36 80.3067 22.8934 79.7 22.3C79.0933 21.7067 78.6117 21.0117 78.255 20.215C77.8983 19.4183 77.72 18.56 77.72 17.64C77.72 17.0467 77.7933 16.4734 77.94 15.92C78.0867 15.3667 78.295 14.8484 78.565 14.365C78.835 13.8817 79.1633 13.4384 79.55 13.035C79.9366 12.6317 80.3683 12.2867 80.845 12C81.3217 11.7134 81.8383 11.4917 82.395 11.335C82.9517 11.1784 83.54 11.1 84.16 11.1C84.6667 11.1 85.1666 11.1617 85.66 11.285C86.1533 11.4084 86.6216 11.5834 87.065 11.81C87.5083 12.0367 87.9233 12.3117 88.31 12.635C88.6967 12.9584 89.0366 13.3234 89.33 13.73C89.73 14.29 90.0233 14.8933 90.21 15.54C90.3966 16.1867 90.49 16.9033 90.49 17.69C90.49 17.8834 90.4816 18.045 90.465 18.175C90.4483 18.305 90.4067 18.41 90.34 18.49C90.2733 18.57 90.1733 18.6284 90.04 18.665C89.9066 18.7017 89.72 18.72 89.48 18.72H80.61C80.6966 19.2 80.8616 19.625 81.105 19.995C81.3483 20.365 81.6366 20.6784 81.97 20.935C82.3033 21.1917 82.6666 21.385 83.06 21.515C83.4533 21.645 83.8466 21.71 84.24 21.71C84.54 21.71 84.8283 21.68 85.105 21.62C85.3816 21.56 85.64 21.48 85.88 21.38C86.12 21.28 86.3416 21.165 86.545 21.035C86.7483 20.905 86.9266 20.77 87.08 20.63C87.08 20.6234 87.0833 20.62 87.09 20.62C87.17 20.5467 87.2467 20.4884 87.32 20.445C87.3933 20.4017 87.47 20.38 87.55 20.38C87.61 20.38 87.6783 20.4 87.755 20.44C87.8316 20.48 87.9067 20.5467 87.98 20.64C88.16 20.86 88.3133 21.0434 88.44 21.19C88.5667 21.3367 88.67 21.46 88.75 21.56C88.83 21.66 88.8883 21.7467 88.925 21.82C88.9616 21.8934 88.98 21.9667 88.98 22.04C88.98 22.2267 88.8533 22.4134 88.6 22.6ZM83.01 13.795C83.3833 13.6517 83.7666 13.58 84.16 13.58C84.6133 13.58 85.0366 13.6467 85.43 13.78C85.8233 13.9134 86.1733 14.1017 86.48 14.345C86.7866 14.5884 87.0483 14.8784 87.265 15.215C87.4816 15.5517 87.6433 15.9234 87.75 16.33H80.67C80.7766 15.9434 80.945 15.5834 81.175 15.25C81.405 14.9167 81.675 14.6267 81.985 14.38C82.295 14.1334 82.6366 13.9384 83.01 13.795ZM107.06 24C107.353 24 107.5 23.8534 107.5 23.56V11.74C107.5 11.62 107.458 11.5167 107.375 11.43C107.292 11.3434 107.18 11.3 107.04 11.3H106C105.88 11.3 105.777 11.34 105.69 11.42C105.603 11.5 105.56 11.6067 105.56 11.74V23.56C105.56 23.8534 105.717 24 106.03 24H107.06ZM107.5 8.99002C107.5 9.28335 107.353 9.43002 107.06 9.43002H106.03C105.717 9.43002 105.56 9.28335 105.56 8.99002V7.96002C105.56 7.82669 105.603 7.72002 105.69 7.64002C105.777 7.56002 105.88 7.52002 106 7.52002H107.04C107.18 7.52002 107.292 7.56169 107.375 7.64502C107.458 7.72835 107.5 7.83335 107.5 7.96002V8.99002ZM113.035 24.03C113.345 24.1034 113.653 24.14 113.96 24.14C114.113 24.14 114.237 24.095 114.33 24.005C114.423 23.915 114.47 23.7934 114.47 23.64V22.82C114.47 22.6534 114.42 22.5234 114.32 22.43C114.22 22.3367 114.093 22.29 113.94 22.29C113.74 22.29 113.583 22.2434 113.47 22.15C113.357 22.0567 113.3 21.8934 113.3 21.66V13.01H114.69C114.843 13.01 114.955 12.9734 115.025 12.9C115.095 12.8267 115.13 12.7034 115.13 12.53V11.74C115.13 11.5667 115.095 11.4467 115.025 11.38C114.955 11.3134 114.843 11.28 114.69 11.28H113.3V9.13002C113.3 9.05002 113.297 8.97502 113.29 8.90502C113.283 8.83502 113.265 8.77335 113.235 8.72002C113.205 8.66669 113.157 8.62669 113.09 8.60002C113.023 8.57335 112.933 8.56669 112.82 8.58002C112.633 8.61335 112.46 8.64335 112.3 8.67002C112.167 8.69669 112.038 8.71835 111.915 8.73502C111.792 8.75169 111.71 8.76669 111.67 8.78002C111.557 8.81335 111.477 8.85502 111.43 8.90502C111.383 8.95502 111.36 9.03669 111.36 9.15002V11.28H110.2C110.033 11.28 109.91 11.3017 109.83 11.345C109.75 11.3884 109.71 11.4967 109.71 11.67V12.6C109.71 12.7734 109.75 12.885 109.83 12.935C109.91 12.985 110.033 13.01 110.2 13.01H111.36V21.68C111.36 22.1734 111.438 22.5784 111.595 22.895C111.752 23.2117 111.953 23.4617 112.2 23.645C112.447 23.8284 112.725 23.9567 113.035 24.03Z" fill="#505050"/>
<path id="logo-icon copy 3" fill-rule="evenodd" clip-rule="evenodd" d="M16.9174 0C13.8431 0.0105678 10.8198 0.861555 8.13099 2.50958C4.2574 4.88289 1.54022 8.62389 0.477673 13.0446C0.163297 14.3544 0.0049989 15.6776 0 16.9919V17.1215C0.0116641 20.1979 0.861477 23.2219 2.50556 25.9123C3.18319 27.0319 3.18319 28.423 2.50334 29.5471L0.961455 32.1612C0.851479 32.3514 0.792603 32.5656 0.792603 32.7791C0.792603 33.4521 1.34026 34 2.01178 34H16.5741C26.0426 34 33.8598 26.4779 33.9986 17.2305C34.0392 14.0174 33.1755 10.8737 31.5025 8.14111C29.1325 4.26328 25.3961 1.54179 20.9815 0.478333C19.6723 0.163523 18.351 0.00500581 17.0374 0H16.9174ZM4.6001 30.8107C5.7404 28.913 5.7404 26.5547 4.59788 24.6536C3.38426 22.6824 2.6472 20.4293 2.46668 18.1377C2.15897 14.2543 3.37981 10.4849 5.90259 7.52206C8.42648 4.55862 11.9524 2.75709 15.8337 2.45006C19.9256 2.10355 23.9831 3.52353 26.9646 6.3457C29.9417 9.15173 31.6169 13.1074 31.5608 17.1994C31.4475 25.1208 24.7246 31.565 16.5741 31.565H4.14853L4.6001 30.8107ZM11.3764 18.3472L15.5925 14.358C15.8254 14.1193 16.1426 14 16.492 14C16.8413 14 17.1545 14.1193 17.3914 14.358L21.6236 18.3472C22.1255 18.8205 22.1255 19.592 21.6236 20.0653C21.1216 20.5386 20.3105 20.5386 19.8086 20.0653L16.492 17L13.1914 20.0693C12.6895 20.5426 11.8784 20.5426 11.3764 20.0693C10.8745 19.592 10.8745 18.8244 11.3764 18.3472Z" fill="url(#paint0_linear)"/>
</g>
<defs>
<linearGradient id="paint0_linear" x1="16.1506" y1="53.2323" x2="49.9689" y2="18.1352" gradientUnits="userSpaceOnUse">
<stop stop-color="#1E15F9"/>
<stop offset="1" stop-color="#C318F9"/>
</linearGradient>
</defs>
</svg>
